<svg width="30" height="30" viewBox="0 0 30 30" fill="none" xmlns="http://www.w3.org/2000/svg">
<path fill-rule="evenodd" clip-rule="evenodd" d="M28.6109 15.0828C28.6109 14.0582 28.519 13.073 28.3482 12.1272H14.7393V17.7166H22.5158C22.1808 19.5228 21.1628 21.0531 19.6324 22.0777V25.7033H24.3023C27.0346 23.1877 28.6109 19.4834 28.6109 15.0828Z" fill="#4285F4"/>
<path fill-rule="evenodd" clip-rule="evenodd" d="M14.7389 29.2041C18.6403 29.2041 21.9112 27.9102 24.3019 25.7033L19.6321 22.0778C18.3382 22.9448 16.683 23.4571 14.7389 23.4571C10.9754 23.4571 7.78993 20.9152 6.65367 17.4999H1.82617V21.2437C4.2038 25.9661 9.0904 29.2041 14.7389 29.2041Z" fill="#34A853"/>
<path fill-rule="evenodd" clip-rule="evenodd" d="M6.65396 17.4998C6.36497 16.6329 6.20077 15.7068 6.20077 14.7544C6.20077 13.802 6.36497 12.8759 6.65396 12.009V8.2652H1.82647C0.847833 10.2159 0.289551 12.4228 0.289551 14.7544C0.289551 17.0861 0.847833 19.2929 1.82647 21.2436L6.65396 17.4998Z" fill="#FBBC05"/>
<path fill-rule="evenodd" clip-rule="evenodd" d="M14.7389 6.05177C16.8604 6.05177 18.7651 6.78082 20.2626 8.21265L24.407 4.06822C21.9046 1.73658 18.6337 0.304749 14.7389 0.304749C9.0904 0.304749 4.2038 3.54278 1.82617 8.26519L6.65367 12.009C7.78993 8.59359 10.9754 6.05177 14.7389 6.05177Z" fill="#EA4335"/>
</svg>
